<svg xmlns="http://www.w3.org/2000/svg" viewBox="0 0 500 500"><g id="freepik--background-simple--inject-81"><path d="M65.7,166.44c7.06,60.42,63,68.43,102.08,57.58s60.87-12.25,64.86,45.71,56.56,94.91,123.64,68.93S438.79,223,408.18,176.78s-93.9-51.33-139-30.41c-47.67,22.1-61.23-43.81-122.08-61.57C114.78,75.38,57.76,98.53,65.7,166.44Z" style="fill:#407BFF"></path><path d="M65.7,166.44c7.06,60.42,63,68.43,102.08,57.58s60.87-12.25,64.86,45.71,56.56,94.91,123.64,68.93S438.79,223,408.18,176.78s-93.9-51.33-139-30.41c-47.67,22.1-61.23-43.81-122.08-61.57C114.78,75.38,57.76,98.53,65.7,166.44Z" style="fill:#fff;opacity:0.9"></path></g><g id="freepik--Shadow--inject-81"><ellipse id="freepik--path--inject-81" cx="250" cy="416.24" rx="193.89" ry="11.32" style="fill:#f5f5f5"></ellipse></g><g id="freepik--Receipt--inject-81"><path d="M206.89,388V143.23a1,1,0,0,1-.92-1s0-.09,0-.13h-1.75a.5.5,0,0,1,0,.13,1,1,0,0,1-2.05,0,.5.5,0,0,1,0-.13H200.5s0,.08,0,.13a1,1,0,1,1-2,0s0-.09,0-.13h-1.75a.5.5,0,0,1,0,.13,1,1,0,0,1-2.05,0,.5.5,0,0,1,0-.13H193s0,.08,0,.13a1,1,0,0,1-2,0s0-.09,0-.13h-1.75a.5.5,0,0,1,0,.13,1,1,0,0,1-2,0,.5.5,0,0,1,0-.13h-1.75s0,.08,0,.13a1,1,0,0,1-2,0,.5.5,0,0,1,0-.13h-1.76a.5.5,0,0,1,0,.13,1,1,0,0,1-2,0s0-.09,0-.13H178s0,.08,0,.13a1,1,0,0,1-2,0,.5.5,0,0,1,0-.13h-1.76a.5.5,0,0,1,0,.13,1,1,0,0,1-2,0s0-.09,0-.13h-1.75a.5.5,0,0,1,0,.13,1,1,0,0,1-2,0,.5.5,0,0,1,0-.13H166.8s0,.08,0,.13a1,1,0,0,1-2,0s0-.09,0-.13h-1.75a.5.5,0,0,1,0,.13,1,1,0,0,1-2.05,0,.5.5,0,0,1,0-.13h-1.75s0,.08,0,.13a1,1,0,1,1-2,0s0-.09,0-.13h-1.75a.5.5,0,0,1,0,.13,1,1,0,0,1-2.05,0,.5.5,0,0,1,0-.13h-1.75s0,.08,0,.13a1,1,0,0,1-2,0,.5.5,0,0,1,0-.13h-1.76a.5.5,0,0,1,0,.13,1,1,0,0,1-2,0,.5.5,0,0,1,0-.13h-1.75s0,.08,0,.13a1,1,0,1,1-2,0,.5.5,0,0,1,0-.13h-1.76a.5.5,0,0,1,0,.13,1,1,0,0,1-2,0s0-.09,0-.13h-1.75a.5.5,0,0,1,0,.13,1,1,0,0,1-2.05,0,.5.5,0,0,1,0-.13H133.1s0,.08,0,.13a1,1,0,0,1-2,0s0-.09,0-.13h-1.75a.5.5,0,0,1,0,.13,1,1,0,0,1-2,0,.5.5,0,0,1,0-.13h-1.75s0,.08,0,.13a1,1,0,0,1-2,0s0-.09,0-.13h-1.75a.5.5,0,0,1,0,.13,1,1,0,0,1-2,0,.5.5,0,0,1,0-.13h-1.75s0,.08,0,.13a1,1,0,1,1-2,0s0-.09,0-.13h-1.75a.5.5,0,0,1,0,.13,1,1,0,0,1-2.05,0,.5.5,0,0,1,0-.13h-1.75s0,.08,0,.13a1,1,0,0,1-2,0,.5.5,0,0,1,0-.13h-1.76a.5.5,0,0,1,0,.13,1,1,0,0,1-2,0s0-.09,0-.13h-1.75s0,.08,0,.13a1,1,0,0,1-2,0,.5.5,0,0,1,0-.13H99.39a.5.5,0,0,1,0,.13,1,1,0,1,1-2,0s0-.09,0-.13H95.65a.5.5,0,0,1,0,.13,1,1,0,0,1-2.05,0,.5.5,0,0,1,0-.13H91.91s0,.08,0,.13a1,1,0,0,1-2,0s0-.09,0-.13H88.16a.5.5,0,0,1,0,.13,1,1,0,0,1-1,1,.88.88,0,0,1-.27-.06V388a21,21,0,0,0,21,21h97.48a21.86,21.86,0,0,0,11.4-3.21A21,21,0,0,1,206.89,388Z" style="fill:#407BFF"></path><path d="M206.89,388V143.23a1,1,0,0,1-.92-1s0-.09,0-.13h-1.75a.5.5,0,0,1,0,.13,1,1,0,0,1-2.05,0,.5.5,0,0,1,0-.13H200.5s0,.08,0,.13a1,1,0,1,1-2,0s0-.09,0-.13h-1.75a.5.5,0,0,1,0,.13,1,1,0,0,1-2.05,0,.5.5,0,0,1,0-.13H193s0,.08,0,.13a1,1,0,0,1-2,0s0-.09,0-.13h-1.75a.5.5,0,0,1,0,.13,1,1,0,0,1-2,0,.5.5,0,0,1,0-.13h-1.75s0,.08,0,.13a1,1,0,0,1-2,0,.5.5,0,0,1,0-.13h-1.76a.5.5,0,0,1,0,.13,1,1,0,0,1-2,0s0-.09,0-.13H178s0,.08,0,.13a1,1,0,0,1-2,0,.5.5,0,0,1,0-.13h-1.76a.5.5,0,0,1,0,.13,1,1,0,0,1-2,0s0-.09,0-.13h-1.75a.5.5,0,0,1,0,.13,1,1,0,0,1-2,0,.5.5,0,0,1,0-.13H166.8s0,.08,0,.13a1,1,0,0,1-2,0s0-.09,0-.13h-1.75a.5.5,0,0,1,0,.13,1,1,0,0,1-2.05,0,.5.5,0,0,1,0-.13h-1.75s0,.08,0,.13a1,1,0,1,1-2,0s0-.09,0-.13h-1.75a.5.5,0,0,1,0,.13,1,1,0,0,1-2.05,0,.5.5,0,0,1,0-.13h-1.75s0,.08,0,.13a1,1,0,0,1-2,0,.5.5,0,0,1,0-.13h-1.76a.5.5,0,0,1,0,.13,1,1,0,0,1-2,0,.5.5,0,0,1,0-.13h-1.75s0,.08,0,.13a1,1,0,1,1-2,0,.5.5,0,0,1,0-.13h-1.76a.5.5,0,0,1,0,.13,1,1,0,0,1-2,0s0-.09,0-.13h-1.75a.5.5,0,0,1,0,.13,1,1,0,0,1-2.05,0,.5.5,0,0,1,0-.13H133.1s0,.08,0,.13a1,1,0,0,1-2,0s0-.09,0-.13h-1.75a.5.5,0,0,1,0,.13,1,1,0,0,1-2,0,.5.5,0,0,1,0-.13h-1.75s0,.08,0,.13a1,1,0,0,1-2,0s0-.09,0-.13h-1.75a.5.5,0,0,1,0,.13,1,1,0,0,1-2,0,.5.5,0,0,1,0-.13h-1.75s0,.08,0,.13a1,1,0,1,1-2,0s0-.09,0-.13h-1.75a.5.5,0,0,1,0,.13,1,1,0,0,1-2.05,0,.5.5,0,0,1,0-.13h-1.75s0,.08,0,.13a1,1,0,0,1-2,0,.5.5,0,0,1,0-.13h-1.76a.5.5,0,0,1,0,.13,1,1,0,0,1-2,0s0-.09,0-.13h-1.75s0,.08,0,.13a1,1,0,0,1-2,0,.5.5,0,0,1,0-.13H99.39a.5.5,0,0,1,0,.13,1,1,0,1,1-2,0s0-.09,0-.13H95.65a.5.5,0,0,1,0,.13,1,1,0,0,1-2.05,0,.5.5,0,0,1,0-.13H91.91s0,.08,0,.13a1,1,0,0,1-2,0s0-.09,0-.13H88.16a.5.5,0,0,1,0,.13,1,1,0,0,1-1,1,.88.88,0,0,1-.27-.06V388a21,21,0,0,0,21,21h97.48a21.86,21.86,0,0,0,11.4-3.21A21,21,0,0,1,206.89,388Z" style="fill:#fff;opacity:0.8"></path><path d="M128.21,167.23l-1.92-2.7a4.73,4.73,0,0,1-.67,0h-2.25v2.66h-.89v-8.4h3.14c2.13,0,3.43,1.08,3.43,2.88a2.6,2.6,0,0,1-1.92,2.64l2.05,2.88Zm-.05-5.52c0-1.34-.89-2.11-2.56-2.11h-2.23v4.21h2.23C127.27,163.81,128.16,163,128.16,161.71Z" style="fill:#407BFF"></path><path d="M137.09,166.46v.77h-5.94v-8.4h5.76v.77H132v3h4.34v.75H132v3.12Z" style="fill:#407BFF"></path><path d="M138.39,163a4.21,4.21,0,0,1,4.4-4.27,4.05,4.05,0,0,1,3.07,1.23l-.56.56a3.33,3.33,0,0,0-2.48-1,3.48,3.48,0,1,0,0,7,3.3,3.3,0,0,0,2.48-1l.56.57a4.1,4.1,0,0,1-3.08,1.23A4.21,4.21,0,0,1,138.39,163Z" style="fill:#407BFF"></path><path d="M153.7,166.46v.77h-5.94v-8.4h5.76v.77h-4.87v3H153v.75h-4.34v3.12Z" style="fill:#407BFF"></path><path d="M155.79,158.83h.89v8.4h-.89Z" style="fill:#407BFF"></path><path d="M166,161.71c0,1.79-1.3,2.87-3.43,2.87H160.3v2.65h-.89v-8.4h3.15C164.69,158.83,166,159.91,166,161.71Zm-.89,0c0-1.34-.89-2.11-2.57-2.11H160.3v4.2h2.23C164.21,163.8,165.1,163,165.1,161.71Z" style="fill:#407BFF"></path><path d="M169.26,159.6h-2.95v-.77h6.79v.77h-2.95v7.63h-.89Z" style="fill:#407BFF"></path><path d="M91.88,177.37H97.1v.71H91.88Zm0,2.77H97.1v.71H91.88Z" style="fill:#407BFF"></path><path d="M98.78,177.37H104v.71H98.78Zm0,2.77H104v.71H98.78Z" style="fill:#407BFF"></path><path d="M105.68,177.37h5.22v.71h-5.22Zm0,2.77h5.22v.71h-5.22Z" style="fill:#407BFF"></path><path d="M112.58,177.37h5.22v.71h-5.22Zm0,2.77h5.22v.71h-5.22Z" style="fill:#407BFF"></path><path d="M119.48,177.37h5.22v.71h-5.22Zm0,2.77h5.22v.71h-5.22Z" style="fill:#407BFF"></path><path d="M126.38,177.37h5.22v.71h-5.22Zm0,2.77h5.22v.71h-5.22Z" style="fill:#407BFF"></path><path d="M133.28,177.37h5.22v.71h-5.22Zm0,2.77h5.22v.71h-5.22Z" style="fill:#407BFF"></path><path d="M140.18,177.37h5.22v.71h-5.22Zm0,2.77h5.22v.71h-5.22Z" style="fill:#407BFF"></path><path d="M147.08,177.37h5.22v.71h-5.22Zm0,2.77h5.22v.71h-5.22Z" style="fill:#407BFF"></path><path d="M154,177.37h5.22v.71H154Zm0,2.77h5.22v.71H154Z" style="fill:#407BFF"></path><path d="M160.88,177.37h5.22v.71h-5.22Zm0,2.77h5.22v.71h-5.22Z" style="fill:#407BFF"></path><path d="M167.78,177.37H173v.71h-5.22Zm0,2.77H173v.71h-5.22Z" style="fill:#407BFF"></path><path d="M174.68,177.37h5.22v.71h-5.22Zm0,2.77h5.22v.71h-5.22Z" style="fill:#407BFF"></path><path d="M181.58,177.37h5.22v.71h-5.22Zm0,2.77h5.22v.71h-5.22Z" style="fill:#407BFF"></path><path d="M188.48,177.37h5.22v.71h-5.22Zm0,2.77h5.22v.71h-5.22Z" style="fill:#407BFF"></path><path d="M195.38,177.37h5.22v.71h-5.22Zm0,2.77h5.22v.71h-5.22Z" style="fill:#407BFF"></path><g style="opacity:0.30000000000000004"><path d="M116.79,195.49H95.43a1,1,0,0,1,0-2h21.36a1,1,0,1,1,0,2Z" style="fill:#407BFF"></path></g><g style="opacity:0.30000000000000004"><path d="M198.79,195.49H152.43a1,1,0,0,1,0-2h46.36a1,1,0,0,1,0,2Z" style="fill:#407BFF"></path></g><path d="M113.66,204.49,112.55,203l-1.12,1.47h-.53l1.38-1.8L111,201h.53l1.06,1.37,1-1.37h.52l-1.32,1.7,1.4,1.8Z" style="fill:#407BFF"></path><path d="M117.83,204.06v.43h-3.27v-.34l1.94-1.9c.53-.52.63-.83.63-1.15,0-.54-.38-.87-1.09-.87a1.61,1.61,0,0,0-1.28.52l-.34-.29a2.09,2.09,0,0,1,1.65-.67c1,0,1.55.48,1.55,1.26a1.9,1.9,0,0,1-.77,1.45l-1.58,1.56Z" style="fill:#407BFF"></path><path d="M182,204.52v.77h-.34v-.76a2.56,2.56,0,0,1-1.59-.61l.2-.38a2.21,2.21,0,0,0,1.39.56v-1.75c-.73-.18-1.47-.4-1.47-1.28,0-.64.46-1.19,1.47-1.27V199H182v.76a2.72,2.72,0,0,1,1.35.41l-.17.4a2.46,2.46,0,0,0-1.18-.39V202c.75.18,1.54.4,1.54,1.29C183.51,203.9,183,204.46,182,204.52Zm-.34-2.63v-1.67c-.68.06-1,.42-1,.83S181.09,201.75,181.63,201.89Zm1.39,1.39c0-.52-.48-.7-1.05-.84v1.66C182.7,204.05,183,203.71,183,203.28Z" style="fill:#407BFF"></path><path d="M185.4,199.83v4.66h-.48v-4.23h-1.1v-.43Z" style="fill:#407BFF"></path><path d="M189.67,203.12c0,.79-.55,1.41-1.69,1.41a2.44,2.44,0,0,1-1.67-.6l.23-.38a2,2,0,0,0,1.43.54c.79,0,1.21-.39,1.21-1s-.37-1-1.55-1h-1l.24-2.34h2.54v.43h-2.13l-.16,1.48h.6C189.14,201.74,189.67,202.29,189.67,203.12Z" style="fill:#407BFF"></path><path d="M190.29,204.15a.34.34,0,0,1,.35-.35.36.36,0,0,1,.36.35.37.37,0,0,1-.36.37A.35.35,0,0,1,190.29,204.15Z" style="fill:#407BFF"></path><path d="M191.62,202.16c0-1.48.78-2.37,1.85-2.37s1.87.89,1.87,2.37-.79,2.37-1.87,2.37S191.62,203.64,191.62,202.16Zm3.22,0c0-1.25-.56-1.93-1.37-1.93s-1.37.68-1.37,1.93.56,1.93,1.37,1.93S194.84,203.4,194.84,202.16Z" style="fill:#407BFF"></path><path d="M196,202.16c0-1.48.77-2.37,1.85-2.37s1.86.89,1.86,2.37-.78,2.37-1.86,2.37S196,203.64,196,202.16Zm3.22,0c0-1.25-.56-1.93-1.37-1.93s-1.37.68-1.37,1.93.56,1.93,1.37,1.93S199.25,203.4,199.25,202.16Z" style="fill:#407BFF"></path><g style="opacity:0.30000000000000004"><path d="M116.79,212.19H102.43a1,1,0,0,1,0-2h14.36a1,1,0,1,1,0,2Z" style="fill:#407BFF"></path></g><g style="opacity:0.30000000000000004"><path d="M198.79,212.19H145.43a1,1,0,0,1,0-2h53.36a1,1,0,1,1,0,2Z" style="fill:#407BFF"></path></g><path d="M113.65,221.19l-1.11-1.46-1.12,1.46h-.53l1.38-1.79L111,217.69h.53l1.05,1.38,1-1.38h.52l-1.32,1.71,1.4,1.79Z" style="fill:#407BFF"></path><path d="M117.82,219.82c0,.8-.55,1.41-1.68,1.41a2.4,2.4,0,0,1-1.67-.59l.23-.38a2,2,0,0,0,1.43.53c.79,0,1.21-.38,1.21-.95s-.37-1-1.56-1h-1l.24-2.33h2.55V217h-2.13l-.16,1.49h.6C117.29,218.45,117.82,219,117.82,219.82Z" style="fill:#407BFF"></path><path d="M181.4,221.23V222h-.33v-.76a2.46,2.46,0,0,1-1.59-.6l.19-.38a2.26,2.26,0,0,0,1.4.56v-1.75c-.73-.18-1.48-.41-1.48-1.29,0-.63.46-1.19,1.48-1.27v-.76h.33v.76a2.56,2.56,0,0,1,1.35.41l-.17.39a2.42,2.42,0,0,0-1.18-.38v1.76c.75.18,1.54.39,1.54,1.28C182.94,220.61,182.46,221.17,181.4,221.23Zm-.33-2.64v-1.66c-.69.06-1,.41-1,.83S180.52,218.45,181.07,218.59Zm1.39,1.4c0-.53-.49-.7-1.06-.84v1.66C182.13,220.76,182.46,220.42,182.46,220Z" style="fill:#407BFF"></path><path d="M184.83,216.54v4.65h-.48V217h-1.1v-.42Z" style="fill:#407BFF"></path><path d="M185.94,218.87c0-1.49.78-2.37,1.86-2.37s1.86.88,1.86,2.37-.78,2.36-1.86,2.36S185.94,220.35,185.94,218.87Zm3.23,0c0-1.25-.56-1.93-1.37-1.93s-1.37.68-1.37,1.93.56,1.92,1.37,1.92S189.17,220.11,189.17,218.87Z" style="fill:#407BFF"></path><path d="M190.29,220.86a.35.35,0,0,1,.35-.36.37.37,0,0,1,0,.73A.35.35,0,0,1,190.29,220.86Z" style="fill:#407BFF"></path><path d="M191.62,218.87c0-1.49.78-2.37,1.85-2.37s1.87.88,1.87,2.37-.79,2.36-1.87,2.36S191.62,220.35,191.62,218.87Zm3.22,0c0-1.25-.55-1.93-1.37-1.93s-1.37.68-1.37,1.93.56,1.92,1.37,1.92S194.84,220.11,194.84,218.87Z" style="fill:#407BFF"></path><path d="M196,218.87c0-1.49.77-2.37,1.85-2.37s1.86.88,1.86,2.37-.78,2.36-1.86,2.36S196,220.35,196,218.87Zm3.22,0c0-1.25-.56-1.93-1.37-1.93s-1.37.68-1.37,1.93.56,1.92,1.37,1.92S199.25,220.11,199.25,218.87Z" style="fill:#407BFF"></path><g style="opacity:0.30000000000000004"><path d="M116.79,228.9H98.43a1,1,0,0,1,0-2h18.36a1,1,0,0,1,0,2Z" style="fill:#407BFF"></path></g><g style="opacity:0.30000000000000004"><path d="M198.79,228.9H159.43a1,1,0,0,1,0-2h39.36a1,1,0,0,1,0,2Z" style="fill:#407BFF"></path></g><path d="M182.68,237.93v.77h-.33v-.76a2.5,2.5,0,0,1-1.59-.6L181,237a2.32,2.32,0,0,0,1.4.56v-1.75c-.73-.18-1.47-.41-1.47-1.29,0-.64.45-1.19,1.47-1.27v-.76h.33v.75a2.63,2.63,0,0,1,1.36.42l-.17.39a2.47,2.47,0,0,0-1.19-.39v1.77c.76.18,1.55.39,1.55,1.28C184.23,237.32,183.74,237.88,182.68,237.93Zm-.33-2.63v-1.66c-.68.06-1,.41-1,.83S181.81,235.16,182.35,235.3Zm1.39,1.4c0-.53-.48-.71-1.06-.85v1.67C183.42,237.46,183.74,237.12,183.74,236.7Z" style="fill:#407BFF"></path><path d="M187.92,236.56c0,.78-.57,1.38-1.69,1.38a2.42,2.42,0,0,1-1.68-.6l.23-.38a2,2,0,0,0,1.45.54c.77,0,1.2-.36,1.2-.94s-.4-.92-1.26-.92h-.33v-.35l1.29-1.62h-2.39v-.43h3v.34l-1.32,1.66C187.42,235.29,187.92,235.82,187.92,236.56Z" style="fill:#407BFF"></path><path d="M188.59,235.57c0-1.48.78-2.37,1.86-2.37s1.86.89,1.86,2.37-.78,2.37-1.86,2.37S188.59,237.06,188.59,235.57Zm3.23,0c0-1.24-.56-1.93-1.37-1.93s-1.37.69-1.37,1.93.56,1.93,1.37,1.93S191.82,236.82,191.82,235.57Z" style="fill:#407BFF"></path><path d="M192.94,237.57a.34.34,0,0,1,.35-.36.36.36,0,0,1,.36.36.36.36,0,0,1-.36.36A.35.35,0,0,1,192.94,237.57Z" style="fill:#407BFF"></path><path d="M195.55,233.24v4.66h-.48v-4.23H194v-.43Z" style="fill:#407BFF"></path><path d="M199.82,236.53c0,.79-.55,1.41-1.69,1.41a2.39,2.39,0,0,1-1.67-.6l.24-.38a2,2,0,0,0,1.43.54c.79,0,1.21-.38,1.21-.95s-.37-1-1.56-1h-1l.24-2.34h2.55v.43h-2.13l-.16,1.48h.6C199.29,235.15,199.82,235.71,199.82,236.53Z" style="fill:#407BFF"></path><g style="opacity:0.30000000000000004"><path d="M116.79,245.61H95.43a1,1,0,0,1,0-2h21.36a1,1,0,1,1,0,2Z" style="fill:#407BFF"></path></g><g style="opacity:0.30000000000000004"><path d="M198.79,245.61H148.43a1,1,0,0,1,0-2h50.36a1,1,0,0,1,0,2Z" style="fill:#407BFF"></path></g><path d="M113.66,254.61l-1.11-1.47-1.12,1.47h-.53l1.38-1.8-1.32-1.7h.53l1.06,1.37,1-1.37h.52l-1.32,1.7,1.4,1.8Z" style="fill:#407BFF"></path><path d="M117.83,254.18v.43h-3.27v-.34l1.94-1.9c.53-.52.63-.83.63-1.15,0-.54-.38-.87-1.09-.87a1.61,1.61,0,0,0-1.28.52l-.34-.29a2.09,2.09,0,0,1,1.65-.67c1,0,1.55.48,1.55,1.26a1.9,1.9,0,0,1-.77,1.45l-1.58,1.56Z" style="fill:#407BFF"></path><path d="M182.48,254.64v.77h-.33v-.76a2.46,2.46,0,0,1-1.59-.61l.19-.38a2.24,2.24,0,0,0,1.4.56v-1.75c-.74-.18-1.48-.4-1.48-1.28,0-.64.46-1.19,1.48-1.27v-.77h.33v.76a2.65,2.65,0,0,1,1.35.41l-.17.4a2.46,2.46,0,0,0-1.18-.39v1.76c.75.18,1.54.4,1.54,1.29C184,254,183.54,254.58,182.48,254.64Zm-.33-2.63v-1.67c-.69.06-1,.42-1,.83S181.6,251.87,182.15,252Zm1.39,1.39c0-.52-.49-.7-1.06-.84v1.66C183.21,254.17,183.54,253.83,183.54,253.4Z" style="fill:#407BFF"></path><path d="M185.91,250v4.66h-.48v-4.23h-1.1V250Z" style="fill:#407BFF"></path><path d="M190.18,253.24c0,.79-.55,1.41-1.69,1.41a2.39,2.39,0,0,1-1.67-.6l.24-.38a2,2,0,0,0,1.43.54c.79,0,1.21-.39,1.21-1s-.38-1-1.56-1h-1l.24-2.34h2.55v.43h-2.13l-.16,1.48h.6C189.65,251.86,190.18,252.41,190.18,253.24Z" style="fill:#407BFF"></path><path d="M190.8,254.28a.35.35,0,0,1,.35-.36.36.36,0,0,1,.36.36.36.36,0,0,1-.36.36A.36.36,0,0,1,190.8,254.28Z" style="fill:#407BFF"></path><path d="M195.45,254.18v.43h-3.27v-.34l1.94-1.9c.52-.52.62-.83.62-1.15,0-.54-.38-.87-1.09-.87a1.6,1.6,0,0,0-1.27.52l-.34-.29a2.09,2.09,0,0,1,1.65-.67c.95,0,1.55.48,1.55,1.26a1.9,1.9,0,0,1-.77,1.45l-1.58,1.56Z" style="fill:#407BFF"></path><path d="M196,252.28c0-1.48.77-2.37,1.85-2.37s1.86.89,1.86,2.37-.78,2.37-1.86,2.37S196,253.76,196,252.28Zm3.22,0c0-1.24-.56-1.93-1.37-1.93s-1.37.69-1.37,1.93.56,1.93,1.37,1.93S199.25,253.52,199.25,252.28Z" style="fill:#407BFF"></path><g style="opacity:0.30000000000000004"><path d="M116.79,262.31H97.43a1,1,0,0,1,0-2h19.36a1,1,0,1,1,0,2Z" style="fill:#407BFF"></path></g><g style="opacity:0.30000000000000004"><path d="M198.79,262.31H145.43a1,1,0,0,1,0-2h53.36a1,1,0,1,1,0,2Z" style="fill:#407BFF"></path></g><path d="M113.23,271.31l-1.11-1.46L111,271.31h-.53l1.38-1.79-1.31-1.7h.53l1.05,1.37,1-1.37h.52l-1.32,1.7,1.4,1.79Z" style="fill:#407BFF"></path><path d="M118,270.09h-.93v1.22h-.48v-1.22H114v-.35l2.47-3.08H117l-2.38,3h2v-1.08h.47v1.08H118Z" style="fill:#407BFF"></path><path d="M180.52,271.35v.76h-.33v-.76a2.48,2.48,0,0,1-1.59-.6l.19-.38a2.26,2.26,0,0,0,1.4.56v-1.75c-.73-.18-1.48-.41-1.48-1.28,0-.64.46-1.2,1.48-1.28v-.76h.33v.76a2.56,2.56,0,0,1,1.35.41l-.16.39a2.48,2.48,0,0,0-1.19-.38v1.76c.75.18,1.54.39,1.54,1.28C182.06,270.73,181.58,271.29,180.52,271.35Zm-.33-2.64v-1.66c-.69.06-1,.41-1,.83S179.64,268.57,180.19,268.71Zm1.39,1.4c0-.53-.49-.7-1.06-.84v1.66C181.25,270.88,181.58,270.54,181.58,270.11Z" style="fill:#407BFF"></path><path d="M185.91,270.89v.42h-3.27V271l1.94-1.9c.52-.52.62-.83.62-1.15,0-.54-.38-.87-1.09-.87a1.56,1.56,0,0,0-1.27.52l-.34-.3a2.11,2.11,0,0,1,1.65-.66c.95,0,1.54.48,1.54,1.26a1.92,1.92,0,0,1-.76,1.45l-1.58,1.56Z" style="fill:#407BFF"></path><path d="M189.67,269.94c0,.8-.55,1.41-1.69,1.41a2.43,2.43,0,0,1-1.67-.59l.23-.38a2,2,0,0,0,1.43.54c.79,0,1.21-.39,1.21-1s-.37-1-1.55-1h-1l.24-2.33h2.54v.42h-2.13l-.16,1.49h.6C189.14,268.57,189.67,269.12,189.67,269.94Z" style="fill:#407BFF"></path><path d="M190.29,271a.35.35,0,0,1,.35-.36.37.37,0,0,1,0,.73A.35.35,0,0,1,190.29,271Z" style="fill:#407BFF"></path><path d="M191.62,269c0-1.49.78-2.37,1.85-2.37s1.87.88,1.87,2.37-.79,2.36-1.87,2.36S191.62,270.47,191.62,269Zm3.22,0c0-1.25-.55-1.93-1.37-1.93s-1.37.68-1.37,1.93.56,1.93,1.37,1.93S194.84,270.23,194.84,269Z" style="fill:#407BFF"></path><path d="M196,269c0-1.49.77-2.37,1.85-2.37s1.86.88,1.86,2.37-.78,2.36-1.86,2.36S196,270.47,196,269Zm3.22,0c0-1.25-.56-1.93-1.37-1.93s-1.37.68-1.37,1.93.56,1.93,1.37,1.93S199.25,270.23,199.25,269Z" style="fill:#407BFF"></path><g style="opacity:0.30000000000000004"><path d="M116.79,279H102.43a1,1,0,0,1,0-2h14.36a1,1,0,1,1,0,2Z" style="fill:#407BFF"></path></g><g style="opacity:0.30000000000000004"><path d="M198.79,279H145.43a1,1,0,0,1,0-2h53.36a1,1,0,0,1,0,2Z" style="fill:#407BFF"></path></g><path d="M179.56,288.05v.77h-.33v-.76a2.5,2.5,0,0,1-1.59-.6l.19-.38a2.32,2.32,0,0,0,1.4.56v-1.75c-.73-.18-1.48-.41-1.48-1.29,0-.64.46-1.19,1.48-1.27v-.76h.33v.75a2.57,2.57,0,0,1,1.35.42l-.16.39a2.5,2.5,0,0,0-1.19-.39v1.77c.75.18,1.55.39,1.55,1.28C181.11,287.44,180.62,288,179.56,288.05Zm-.33-2.63v-1.66c-.69.06-1,.41-1,.83S178.68,285.28,179.23,285.42Zm1.39,1.4c0-.53-.49-.71-1.06-.85v1.67C180.29,287.58,180.62,287.24,180.62,286.82Z" style="fill:#407BFF"></path><path d="M183,283.36V288h-.48v-4.23h-1.09v-.43Z" style="fill:#407BFF"></path><path d="M185.4,283.36V288h-.48v-4.23h-1.1v-.43Z" style="fill:#407BFF"></path><path d="M189.67,286.65c0,.79-.55,1.41-1.69,1.41a2.39,2.39,0,0,1-1.67-.6l.23-.38a2,2,0,0,0,1.43.54c.79,0,1.21-.38,1.21-.95s-.37-1-1.55-1h-1l.24-2.34h2.54v.43h-2.13l-.16,1.48h.6C189.14,285.27,189.67,285.83,189.67,286.65Z" style="fill:#407BFF"></path><path d="M190.29,287.69a.34.34,0,0,1,.35-.36.36.36,0,0,1,.36.36.36.36,0,0,1-.36.36A.35.35,0,0,1,190.29,287.69Z" style="fill:#407BFF"></path><path d="M191.62,285.69c0-1.48.78-2.37,1.85-2.37s1.87.89,1.87,2.37-.79,2.37-1.87,2.37S191.62,287.18,191.62,285.69Zm3.22,0c0-1.24-.55-1.93-1.37-1.93s-1.37.69-1.37,1.93.56,1.93,1.37,1.93S194.84,286.94,194.84,285.69Z" style="fill:#407BFF"></path><path d="M196,285.69c0-1.48.77-2.37,1.85-2.37s1.86.89,1.86,2.37-.78,2.37-1.86,2.37S196,287.18,196,285.69Zm3.22,0c0-1.24-.56-1.93-1.37-1.93s-1.37.69-1.37,1.93.56,1.93,1.37,1.93S199.25,286.94,199.25,285.69Z" style="fill:#407BFF"></path><g style="opacity:0.30000000000000004"><path d="M116.79,295.73H97.43a1,1,0,0,1,0-2h19.36a1,1,0,1,1,0,2Z" style="fill:#407BFF"></path></g><g style="opacity:0.30000000000000004"><path d="M198.79,295.73H154.43a1,1,0,0,1,0-2h44.36a1,1,0,0,1,0,2Z" style="fill:#407BFF"></path></g><path d="M113.66,304.73l-1.11-1.47-1.12,1.47h-.53l1.39-1.8-1.32-1.7h.53l1,1.37,1-1.37h.52l-1.31,1.7,1.39,1.8Z" style="fill:#407BFF"></path><path d="M117.76,303.39c0,.78-.57,1.38-1.69,1.38a2.42,2.42,0,0,1-1.68-.6l.23-.38a2.06,2.06,0,0,0,1.45.54c.77,0,1.2-.36,1.2-.94s-.4-.92-1.26-.92h-.33v-.36L117,300.5h-2.38v-.43h3v.34l-1.32,1.66C117.26,302.12,117.76,302.65,117.76,303.39Z" style="fill:#407BFF"></path><path d="M180.62,304.76v.77h-.33v-.76a2.43,2.43,0,0,1-1.59-.61l.19-.38a2.26,2.26,0,0,0,1.4.56v-1.75c-.73-.18-1.48-.4-1.48-1.28,0-.64.46-1.19,1.48-1.27v-.77h.33V300a2.65,2.65,0,0,1,1.35.41l-.17.4a2.43,2.43,0,0,0-1.18-.39v1.76c.75.18,1.54.4,1.54,1.29C182.16,304.14,181.68,304.7,180.62,304.76Zm-.33-2.63v-1.67c-.69.06-1,.42-1,.84S179.74,302,180.29,302.13Zm1.39,1.39c0-.52-.49-.7-1.06-.84v1.66C181.35,304.29,181.68,304,181.68,303.52Z" style="fill:#407BFF"></path><path d="M186,304.3v.43h-3.27v-.34l1.94-1.9c.52-.52.62-.83.62-1.15,0-.54-.38-.87-1.09-.87a1.59,1.59,0,0,0-1.27.52l-.34-.29a2.09,2.09,0,0,1,1.65-.67c.94,0,1.54.48,1.54,1.26a2,2,0,0,1-.76,1.46l-1.58,1.55Z" style="fill:#407BFF"></path><path d="M186.58,302.4c0-1.48.78-2.37,1.86-2.37s1.86.89,1.86,2.37-.78,2.37-1.86,2.37S186.58,303.88,186.58,302.4Zm3.23,0c0-1.24-.56-1.93-1.37-1.93s-1.37.69-1.37,1.93.56,1.93,1.37,1.93S189.81,303.64,189.81,302.4Z" style="fill:#407BFF"></path><path d="M190.92,304.4a.35.35,0,0,1,.36-.36.36.36,0,0,1,.36.36.36.36,0,0,1-.36.36A.36.36,0,0,1,190.92,304.4Z" style="fill:#407BFF"></path><path d="M192.26,302.4c0-1.48.77-2.37,1.85-2.37s1.87.89,1.87,2.37-.79,2.37-1.87,2.37S192.26,303.88,192.26,302.4Zm3.22,0c0-1.24-.56-1.93-1.37-1.93s-1.37.69-1.37,1.93.56,1.93,1.37,1.93S195.48,303.64,195.48,302.4Z" style="fill:#407BFF"></path><path d="M199.82,303.36c0,.79-.55,1.41-1.68,1.41a2.36,2.36,0,0,1-1.67-.6l.23-.38a2,2,0,0,0,1.43.54c.79,0,1.21-.39,1.21-.95s-.37-1-1.56-1h-1l.24-2.34h2.55v.43h-2.13l-.16,1.48h.6C199.29,302,199.82,302.53,199.82,303.36Z" style="fill:#407BFF"></path><g style="opacity:0.30000000000000004"><path d="M116.79,312.43H95.43a1,1,0,0,1,0-2h21.36a1,1,0,1,1,0,2Z" style="fill:#407BFF"></path></g><g style="opacity:0.30000000000000004"><path d="M198.79,312.43H145.43a1,1,0,0,1,0-2h53.36a1,1,0,1,1,0,2Z" style="fill:#407BFF"></path></g><path d="M111.2,321.44,110.09,320,109,321.44h-.53l1.38-1.8-1.32-1.7H109l1,1.37,1-1.37h.52l-1.32,1.7,1.4,1.8Z" style="fill:#407BFF"></path><path d="M113.54,316.78v4.66h-.48V317.2H112v-.42Z" style="fill:#407BFF"></path><path d="M117.83,321v.43h-3.27v-.34l1.94-1.9c.53-.52.63-.83.63-1.15,0-.54-.38-.87-1.09-.87a1.58,1.58,0,0,0-1.28.52l-.34-.3a2.11,2.11,0,0,1,1.65-.66c1,0,1.55.48,1.55,1.26a1.9,1.9,0,0,1-.77,1.45L115.27,321Z" style="fill:#407BFF"></path><path d="M184.66,321.47v.76h-.34v-.75a2.56,2.56,0,0,1-1.59-.61l.2-.38a2.21,2.21,0,0,0,1.39.56V319.3c-.73-.18-1.47-.41-1.47-1.28,0-.64.46-1.19,1.47-1.27V316h.34v.76a2.59,2.59,0,0,1,1.35.41l-.17.39a2.45,2.45,0,0,0-1.18-.38v1.76c.75.18,1.54.39,1.54,1.28C186.2,320.85,185.71,321.41,184.66,321.47Zm-.34-2.64v-1.66c-.68.06-1,.41-1,.83S183.78,318.69,184.32,318.83Zm1.39,1.4c0-.52-.48-.7-1.05-.84v1.66C185.39,321,185.71,320.66,185.71,320.23Z" style="fill:#407BFF"></path><path d="M190,320.06c0,.8-.55,1.42-1.69,1.42a2.44,2.44,0,0,1-1.67-.6l.24-.38a2,2,0,0,0,1.43.54c.79,0,1.21-.39,1.21-1s-.38-1-1.56-1h-1l.24-2.33h2.55v.42h-2.13l-.16,1.49h.6C189.49,318.69,190,319.24,190,320.06Z" style="fill:#407BFF"></path><path d="M190.64,321.1a.36.36,0,0,1,.35-.36.37.37,0,0,1,0,.73A.36.36,0,0,1,190.64,321.1Z" style="fill:#407BFF"></path><path d="M195.47,320a1.46,1.46,0,0,1-1.59,1.44c-1.24,0-1.91-.86-1.91-2.33s.87-2.41,2.13-2.41a2.11,2.11,0,0,1,1.1.25l-.19.39a1.63,1.63,0,0,0-.9-.22c-1,0-1.65.64-1.65,1.91a2.69,2.69,0,0,0,0,.38,1.46,1.46,0,0,1,1.42-.8A1.41,1.41,0,0,1,195.47,320Zm-.47,0a1,1,0,0,0-1.17-1,1.08,1.08,0,0,0-1.2,1c0,.51.42,1,1.23,1A1,1,0,0,0,195,320.06Z" style="fill:#407BFF"></path><path d="M196,319.11c0-1.49.77-2.37,1.85-2.37s1.86.88,1.86,2.37-.78,2.37-1.86,2.37S196,320.59,196,319.11Zm3.22,0c0-1.25-.56-1.93-1.37-1.93s-1.37.68-1.37,1.93.56,1.93,1.37,1.93S199.25,320.35,199.25,319.11Z" style="fill:#407BFF"></path><g style="opacity:0.30000000000000004"><path d="M116.79,329.14H98.43a1,1,0,0,1,0-2h18.36a1,1,0,1,1,0,2Z" style="fill:#407BFF"></path></g><g style="opacity:0.30000000000000004"><path d="M198.79,329.14H156.43a1,1,0,0,1,0-2h42.36a1,1,0,0,1,0,2Z" style="fill:#407BFF"></path></g><path d="M113.66,338.14l-1.11-1.46-1.12,1.46h-.53l1.38-1.79L111,334.64h.53l1.06,1.37,1-1.37h.52l-1.32,1.71,1.4,1.79Z" style="fill:#407BFF"></path><path d="M117.83,337.72v.42h-3.27v-.34l1.94-1.89c.53-.52.63-.83.63-1.15,0-.54-.38-.88-1.09-.88a1.61,1.61,0,0,0-1.28.52l-.34-.29a2.08,2.08,0,0,1,1.65-.66c1,0,1.55.47,1.55,1.25a1.91,1.91,0,0,1-.77,1.46l-1.58,1.56Z" style="fill:#407BFF"></path><path d="M180.69,338.17v.77h-.34v-.76a2.5,2.5,0,0,1-1.59-.6l.2-.38a2.29,2.29,0,0,0,1.39.56V336c-.73-.18-1.47-.41-1.47-1.29,0-.64.46-1.19,1.47-1.27v-.76h.34v.76a2.48,2.48,0,0,1,1.35.41l-.17.39a2.46,2.46,0,0,0-1.18-.39v1.77c.75.18,1.54.39,1.54,1.28C182.23,337.56,181.74,338.12,180.69,338.17Zm-.34-2.63v-1.66c-.68.06-1,.41-1,.83S179.81,335.4,180.35,335.54Zm1.39,1.4c0-.53-.48-.71-1.05-.85v1.67C181.42,337.7,181.74,337.36,181.74,336.94Z" style="fill:#407BFF"></path><path d="M185.92,336.8c0,.78-.57,1.38-1.69,1.38a2.42,2.42,0,0,1-1.68-.6l.24-.38a2,2,0,0,0,1.44.54c.77,0,1.2-.36,1.2-.94s-.39-.92-1.26-.92h-.33v-.35l1.29-1.62h-2.38v-.43h3v.34l-1.32,1.66C185.42,335.53,185.92,336.06,185.92,336.8Z" style="fill:#407BFF"></path><path d="M189.69,336.77c0,.79-.55,1.41-1.69,1.41a2.39,2.39,0,0,1-1.67-.6l.23-.38a2,2,0,0,0,1.43.54c.79,0,1.21-.38,1.21-.95s-.37-1-1.55-1h-1l.24-2.34h2.54v.43h-2.13l-.16,1.48h.6C189.16,335.39,189.69,336,189.69,336.77Z" style="fill:#407BFF"></path><path d="M190.3,337.81a.35.35,0,0,1,.36-.36.36.36,0,1,1,0,.72A.35.35,0,0,1,190.3,337.81Z" style="fill:#407BFF"></path><path d="M195.58,336.92h-.93v1.22h-.48v-1.22h-2.63v-.35l2.47-3.09h.53l-2.38,3h2v-1.08h.47v1.08h.93Z" style="fill:#407BFF"></path><path d="M196,335.81c0-1.48.77-2.36,1.85-2.36s1.86.88,1.86,2.36-.78,2.37-1.86,2.37S196,337.3,196,335.81Zm3.22,0c0-1.24-.56-1.93-1.37-1.93s-1.37.69-1.37,1.93.56,1.93,1.37,1.93S199.25,337.06,199.25,335.81Z" style="fill:#407BFF"></path><g style="opacity:0.30000000000000004"><path d="M116.79,345.85H95.43a1,1,0,0,1,0-2h21.36a1,1,0,1,1,0,2Z" style="fill:#407BFF"></path></g><g style="opacity:0.30000000000000004"><path d="M198.79,345.85H153.43a1,1,0,0,1,0-2h45.36a1,1,0,0,1,0,2Z" style="fill:#407BFF"></path></g><path d="M113.66,354.85l-1.12-1.47-1.11,1.47h-.53l1.38-1.8-1.32-1.7h.53l1.05,1.37,1.06-1.37h.51l-1.31,1.7,1.39,1.8Z" style="fill:#407BFF"></path><path d="M117.83,354.42v.43h-3.27v-.34l1.94-1.9c.53-.52.63-.83.63-1.15,0-.54-.38-.87-1.1-.87a1.6,1.6,0,0,0-1.27.52l-.34-.29a2.09,2.09,0,0,1,1.65-.67c1,0,1.55.48,1.55,1.26a1.92,1.92,0,0,1-.77,1.46l-1.58,1.55Z" style="fill:#407BFF"></path><path d="M179.86,354.88v.77h-.33v-.76a2.43,2.43,0,0,1-1.59-.61l.19-.38a2.26,2.26,0,0,0,1.4.56v-1.75c-.73-.18-1.48-.4-1.48-1.28,0-.64.46-1.19,1.48-1.27v-.77h.33v.76a2.65,2.65,0,0,1,1.35.41l-.17.4a2.43,2.43,0,0,0-1.18-.39v1.76c.75.18,1.54.4,1.54,1.29C181.4,354.26,180.92,354.82,179.86,354.88Zm-.33-2.63v-1.67c-.69.06-1,.42-1,.84S179,352.11,179.53,352.25Zm1.39,1.39c0-.52-.49-.7-1.06-.84v1.66C180.59,354.41,180.92,354.07,180.92,353.64Z" style="fill:#407BFF"></path><path d="M186.09,353.62h-.93v1.23h-.48v-1.23h-2.63v-.34l2.47-3.09h.53l-2.38,3h2v-1.08h.47v1.08h.93Z" style="fill:#407BFF"></path><path d="M189.67,353.48c0,.79-.55,1.41-1.69,1.41a2.39,2.39,0,0,1-1.67-.6l.23-.38a2,2,0,0,0,1.43.54c.79,0,1.21-.39,1.21-.95s-.37-1-1.55-1h-1l.24-2.34h2.55v.43h-2.13l-.16,1.48h.6C189.14,352.1,189.67,352.65,189.67,353.48Z" style="fill:#407BFF"></path><path d="M190.28,354.52a.35.35,0,0,1,.36-.36.36.36,0,0,1,.36.36.36.36,0,0,1-.36.36A.36.36,0,0,1,190.28,354.52Z" style="fill:#407BFF"></path><path d="M191.62,352.52c0-1.48.78-2.37,1.85-2.37s1.87.89,1.87,2.37-.79,2.37-1.87,2.37S191.62,354,191.62,352.52Zm3.22,0c0-1.24-.56-1.93-1.37-1.93s-1.37.69-1.37,1.93.56,1.93,1.37,1.93S194.84,353.76,194.84,352.52Z" style="fill:#407BFF"></path><path d="M196,352.52c0-1.48.78-2.37,1.86-2.37s1.86.89,1.86,2.37-.78,2.37-1.86,2.37S196,354,196,352.52Zm3.23,0c0-1.24-.56-1.93-1.37-1.93s-1.37.69-1.37,1.93.56,1.93,1.37,1.93S199.25,353.76,199.25,352.52Z" style="fill:#407BFF"></path><g style="opacity:0.30000000000000004"><path d="M116.79,362.55H97.43a1,1,0,0,1,0-2h19.36a1,1,0,1,1,0,2Z" style="fill:#407BFF"></path></g><g style="opacity:0.30000000000000004"><path d="M198.79,362.55H145.43a1,1,0,0,1,0-2h53.36a1,1,0,1,1,0,2Z" style="fill:#407BFF"></path></g><path d="M110.57,371.56l-1.11-1.47-1.12,1.47h-.53l1.39-1.8-1.32-1.7h.53l1,1.37,1.05-1.37H111l-1.31,1.7,1.39,1.8Z" style="fill:#407BFF"></path><path d="M112.91,366.9v4.66h-.48v-4.24h-1.09v-.42Z" style="fill:#407BFF"></path><path d="M114,369.23c0-1.49.77-2.37,1.85-2.37s1.86.88,1.86,2.37-.78,2.37-1.86,2.37S114,370.71,114,369.23Zm3.22,0c0-1.25-.56-1.93-1.37-1.93s-1.37.68-1.37,1.93.56,1.93,1.37,1.93S117.25,370.47,117.25,369.23Z" style="fill:#407BFF"></path><path d="M182.53,371.59v.76h-.33v-.75a2.56,2.56,0,0,1-1.59-.61l.19-.38a2.26,2.26,0,0,0,1.4.56v-1.75c-.73-.18-1.48-.41-1.48-1.28,0-.64.46-1.19,1.48-1.27v-.77h.33v.76a2.56,2.56,0,0,1,1.35.41l-.16.39a2.48,2.48,0,0,0-1.19-.38V369c.75.18,1.55.39,1.55,1.28C184.08,371,183.59,371.53,182.53,371.59ZM182.2,369v-1.66c-.69.06-1,.41-1,.83S181.65,368.81,182.2,369Zm1.39,1.4c0-.52-.49-.7-1.06-.84v1.66C183.26,371.12,183.59,370.78,183.59,370.35Z" style="fill:#407BFF"></path><path d="M186,366.9v4.66h-.48v-4.24h-1.09v-.42Z" style="fill:#407BFF"></path><path d="M190.24,370.18c0,.8-.56,1.42-1.69,1.42a2.42,2.42,0,0,1-1.67-.6l.23-.38a2,2,0,0,0,1.43.54c.79,0,1.21-.39,1.21-1s-.37-1-1.56-1h-1l.24-2.33H190v.42h-2.13l-.16,1.49h.6C189.7,368.81,190.24,369.36,190.24,370.18Z" style="fill:#407BFF"></path><path d="M190.85,371.22a.36.36,0,1,1,.71,0,.36.36,0,1,1-.71,0Z" style="fill:#407BFF"></path><path d="M195.42,370.18c0,.8-.56,1.42-1.69,1.42a2.42,2.42,0,0,1-1.67-.6l.23-.38a2,2,0,0,0,1.43.54c.79,0,1.21-.39,1.21-1s-.37-1-1.56-1h-1l.24-2.33h2.55v.42H193l-.16,1.49h.6C194.88,368.81,195.42,369.36,195.42,370.18Z" style="fill:#407BFF"></path><path d="M196,369.23c0-1.49.77-2.37,1.85-2.37s1.86.88,1.86,2.37-.78,2.37-1.86,2.37S196,370.71,196,369.23Zm3.22,0c0-1.25-.56-1.93-1.37-1.93s-1.37.68-1.37,1.93.56,1.93,1.37,1.93S199.25,370.47,199.25,369.23Z" style="fill:#407BFF"></path><g style="opacity:0.30000000000000004"><path d="M116.79,379.26H102.43a1,1,0,0,1,0-2h14.36a1,1,0,1,1,0,2Z" style="fill:#407BFF"></path></g><g style="opacity:0.30000000000000004"><path d="M198.79,379.26H152.43a1,1,0,0,1,0-2h46.36a1,1,0,0,1,0,2Z" style="fill:#407BFF"></path></g><path d="M113.18,388.26l-1.11-1.46L111,388.26h-.54l1.39-1.79-1.32-1.71H111l1,1.37,1.05-1.37h.52l-1.31,1.71,1.39,1.79Z" style="fill:#407BFF"></path><path d="M117.76,387c0,.83-.69,1.34-1.8,1.34s-1.8-.51-1.8-1.34a1.16,1.16,0,0,1,.9-1.14,1,1,0,0,1-.73-1c0-.76.64-1.23,1.63-1.23s1.64.47,1.64,1.23a1.06,1.06,0,0,1-.75,1A1.16,1.16,0,0,1,117.76,387Zm-.49,0c0-.57-.49-.93-1.31-.93s-1.32.36-1.32.93.49.94,1.32.94S117.27,387.54,117.27,387ZM116,385.65c.72,0,1.15-.33,1.15-.83s-.46-.85-1.15-.85-1.16.32-1.16.84S115.23,385.65,116,385.65Z" style="fill:#407BFF"></path><path d="M181.4,388.3v.76h-.33v-.76a2.46,2.46,0,0,1-1.59-.6l.19-.38a2.32,2.32,0,0,0,1.4.56v-1.75c-.73-.18-1.48-.41-1.48-1.29,0-.64.46-1.19,1.48-1.27v-.76h.33v.76a2.56,2.56,0,0,1,1.35.41l-.17.39a2.43,2.43,0,0,0-1.18-.39v1.77c.75.18,1.54.39,1.54,1.28C182.94,387.68,182.46,388.24,181.4,388.3Zm-.33-2.64V384c-.69.06-1,.41-1,.83S180.52,385.52,181.07,385.66Zm1.39,1.4c0-.53-.49-.71-1.06-.85v1.67C182.13,387.82,182.46,387.48,182.46,387.06Z" style="fill:#407BFF"></path><path d="M184.83,383.61v4.65h-.48V384h-1.1v-.42Z" style="fill:#407BFF"></path><path d="M185.94,385.93c0-1.48.78-2.36,1.86-2.36s1.86.88,1.86,2.36-.78,2.37-1.86,2.37S185.94,387.42,185.94,385.93Zm3.23,0c0-1.24-.56-1.93-1.37-1.93s-1.37.69-1.37,1.93.56,1.93,1.37,1.93S189.17,387.18,189.17,385.93Z" style="fill:#407BFF"></path><path d="M190.29,387.93a.34.34,0,0,1,.35-.36.36.36,0,0,1,.36.36.37.37,0,0,1-.36.37A.35.35,0,0,1,190.29,387.93Z" style="fill:#407BFF"></path><path d="M191.62,385.93c0-1.48.78-2.36,1.85-2.36s1.87.88,1.87,2.36-.79,2.37-1.87,2.37S191.62,387.42,191.62,385.93Zm3.22,0c0-1.24-.55-1.93-1.37-1.93s-1.37.69-1.37,1.93.56,1.93,1.37,1.93S194.84,387.18,194.84,385.93Z" style="fill:#407BFF"></path><path d="M196,385.93c0-1.48.77-2.36,1.85-2.36s1.86.88,1.86,2.36-.78,2.37-1.86,2.37S196,387.42,196,385.93Zm3.22,0c0-1.24-.56-1.93-1.37-1.93s-1.37.69-1.37,1.93.56,1.93,1.37,1.93S199.25,387.18,199.25,385.93Z" style="fill:#407BFF"></path><g style="opacity:0.30000000000000004"><path d="M116.79,396H99.43a1,1,0,0,1,0-2h17.36a1,1,0,1,1,0,2Z" style="fill:#407BFF"></path></g><g style="opacity:0.30000000000000004"><path d="M198.79,396H145.43a1,1,0,0,1,0-2h53.36a1,1,0,0,1,0,2Z" style="fill:#407BFF"></path></g><path d="M182,405v.77h-.34V405a2.45,2.45,0,0,1-1.59-.61l.2-.38a2.21,2.21,0,0,0,1.39.56v-1.75c-.73-.18-1.47-.4-1.47-1.28,0-.64.46-1.19,1.47-1.27v-.77H182v.76a2.72,2.72,0,0,1,1.35.41l-.17.4a2.46,2.46,0,0,0-1.18-.39v1.76c.75.18,1.54.4,1.54,1.29C183.51,404.38,183,404.94,182,405Zm-.34-2.63V400.7c-.68.06-1,.42-1,.84S181.09,402.23,181.63,402.37Zm1.39,1.39c0-.52-.48-.7-1.05-.84v1.66C182.7,404.53,183,404.19,183,403.76Z" style="fill:#407BFF"></path><path d="M185.4,400.31V405h-.48v-4.23h-1.1v-.43Z" style="fill:#407BFF"></path><path d="M189.67,403.6c0,.79-.55,1.41-1.69,1.41a2.39,2.39,0,0,1-1.67-.6l.23-.38a2,2,0,0,0,1.43.54c.79,0,1.21-.39,1.21-.95s-.37-1-1.55-1h-1l.24-2.34h2.54v.43h-2.13l-.16,1.48h.6C189.14,402.22,189.67,402.77,189.67,403.6Z" style="fill:#407BFF"></path><path d="M190.29,404.64a.34.34,0,0,1,.35-.36.36.36,0,0,1,.36.36.36.36,0,0,1-.36.36A.35.35,0,0,1,190.29,404.64Z" style="fill:#407BFF"></path><path d="M191.62,402.64c0-1.48.78-2.37,1.85-2.37s1.87.89,1.87,2.37-.79,2.37-1.87,2.37S191.62,404.12,191.62,402.64Zm3.22,0c0-1.24-.56-1.93-1.37-1.93s-1.37.69-1.37,1.93.56,1.93,1.37,1.93S194.84,403.88,194.84,402.64Z" style="fill:#407BFF"></path><path d="M196,402.64c0-1.48.77-2.37,1.85-2.37s1.86.89,1.86,2.37S199,405,197.88,405,196,404.12,196,402.64Zm3.22,0c0-1.24-.56-1.93-1.37-1.93s-1.37.69-1.37,1.93.56,1.93,1.37,1.93S199.25,403.88,199.25,402.64Z" style="fill:#407BFF"></path><path d="M91.88,146.37H97.1v.71H91.88Zm0,2.77H97.1v.71H91.88Z" style="fill:#407BFF"></path><path d="M98.78,146.37H104v.71H98.78Zm0,2.77H104v.71H98.78Z" style="fill:#407BFF"></path><path d="M105.68,146.37h5.22v.71h-5.22Zm0,2.77h5.22v.71h-5.22Z" style="fill:#407BFF"></path><path d="M112.58,146.37h5.22v.71h-5.22Zm0,2.77h5.22v.71h-5.22Z" style="fill:#407BFF"></path><path d="M119.48,146.37h5.22v.71h-5.22Zm0,2.77h5.22v.71h-5.22Z" style="fill:#407BFF"></path><path d="M126.38,146.37h5.22v.71h-5.22Zm0,2.77h5.22v.71h-5.22Z" style="fill:#407BFF"></path><path d="M133.28,146.37h5.22v.71h-5.22Zm0,2.77h5.22v.71h-5.22Z" style="fill:#407BFF"></path><path d="M140.18,146.37h5.22v.71h-5.22Zm0,2.77h5.22v.71h-5.22Z" style="fill:#407BFF"></path><path d="M147.08,146.37h5.22v.71h-5.22Zm0,2.77h5.22v.71h-5.22Z" style="fill:#407BFF"></path><path d="M154,146.37h5.22v.71H154Zm0,2.77h5.22v.71H154Z" style="fill:#407BFF"></path><path d="M160.88,146.37h5.22v.71h-5.22Zm0,2.77h5.22v.71h-5.22Z" style="fill:#407BFF"></path><path d="M167.78,146.37H173v.71h-5.22Zm0,2.77H173v.71h-5.22Z" style="fill:#407BFF"></path><path d="M174.68,146.37h5.22v.71h-5.22Zm0,2.77h5.22v.71h-5.22Z" style="fill:#407BFF"></path><path d="M181.58,146.37h5.22v.71h-5.22Zm0,2.77h5.22v.71h-5.22Z" style="fill:#407BFF"></path><path d="M188.48,146.37h5.22v.71h-5.22Zm0,2.77h5.22v.71h-5.22Z" style="fill:#407BFF"></path><path d="M195.38,146.37h5.22v.71h-5.22Zm0,2.77h5.22v.71h-5.22Z" style="fill:#407BFF"></path><path d="M306.55,398.25l-3.57-6A31.15,31.15,0,0,0,276.2,377h-120A31.15,31.15,0,0,1,183,392.26l3.57,6a21.89,21.89,0,0,0,18.23,10.68H325.36A21.88,21.88,0,0,1,306.55,398.25Z" style="fill:#407BFF"></path><path d="M306.55,398.25l-3.57-6A31.15,31.15,0,0,0,276.2,377h-120A31.15,31.15,0,0,1,183,392.26l3.57,6a21.89,21.89,0,0,0,18.23,10.68H325.36A21.88,21.88,0,0,1,306.55,398.25Z" style="fill:#fff;opacity:0.7000000000000001"></path><path d="M384,400.49h0A30,30,0,0,0,363.18,392H239.76a21.58,21.58,0,0,0-17.07,8.39,21.69,21.69,0,0,1-5.93,5.3,20.8,20.8,0,0,0,11.12,3.21,20.56,20.56,0,0,0,3.35-.28l-.14.28H404.87A29.91,29.91,0,0,1,384,400.49Z" style="fill:#407BFF"></path><g style="opacity:0.6000000000000001"><path d="M384,400.49h0A30,30,0,0,0,363.18,392H239.76a21.58,21.58,0,0,0-17.07,8.39,21.69,21.69,0,0,1-5.93,5.3,20.8,20.8,0,0,0,11.12,3.21,20.56,20.56,0,0,0,3.35-.28l-.14.28H404.87A29.91,29.91,0,0,1,384,400.49Z" style="fill:#fff"></path></g><path d="M205.36,409H107.88a21,21,0,0,0,18.52-11.1l2.32-4.35A31.16,31.16,0,0,1,183,392.26l3.57,6A21.88,21.88,0,0,0,205.36,409Z" style="fill:#407BFF"></path><path d="M264,400.49A30,30,0,0,0,243.18,392h-3.42a21.58,21.58,0,0,0-17.07,8.39,21.87,21.87,0,0,1-17.33,8.51h79.51A29.91,29.91,0,0,1,264,400.49Z" style="fill:#407BFF"></path><path d="M205.36,409H107.88a21,21,0,0,0,18.52-11.1l2.32-4.35A31.16,31.16,0,0,1,183,392.26l3.57,6A21.88,21.88,0,0,0,205.36,409Z" style="fill:#fff;opacity:0.30000000000000004"></path><path d="M264,400.49A30,30,0,0,0,243.18,392h-3.42a21.58,21.58,0,0,0-17.07,8.39,21.87,21.87,0,0,1-17.33,8.51h79.51A29.91,29.91,0,0,1,264,400.49Z" style="fill:#fff;opacity:0.4"></path></g><g id="freepik--Character--inject-81"><path d="M297.68,261c-.76-.15-19.78,3.29-23.29,2a1.51,1.51,0,0,1-.31-.14c-2.51-1.65,3.79-44.9,3.79-44.9l17.33-3.17s.08,1.16.21,3.12C296.13,228.34,298.34,261.15,297.68,261Z" style="fill:#263238"></path><path d="M279.29,218.79a9,9,0,0,0,3.31,1.05c1.37,0,9.67-2.11,9.67-2.11l-4.08-1.11Z" style="opacity:0.5;isolation:isolate"></path><path d="M297.68,261c-.76-.15-19.78,3.29-23.29,2a17.38,17.38,0,0,0,4.9-1.13s4.52-32.77,11.85-42.56a3.43,3.43,0,0,1,4.27-1.4C296.13,228.34,298.34,261.15,297.68,261Z" style="opacity:0.2;isolation:isolate"></path><path d="M287.3,184.89c-4.19,2.18-10.92,24.13-12.7,24.33s-7.31-13.85-7.31-13.85l-4,1.68s3.56,16.52,9.1,19.29,17.35-15.46,17.35-15.46Z" style="fill:#407BFF"></path><path d="M289.78,200.88a82.83,82.83,0,0,1-8.8,11.17c-3.08,3.12-6.32,5.4-8.55,4.29-5.54-2.77-9.1-19.29-9.1-19.29l4-1.68s5.53,14,7.31,13.85,8.51-22.15,12.7-24.33l1.64,10.58Z" style="fill:#fff;opacity:0.4"></path><path d="M289.78,200.88a82.83,82.83,0,0,1-8.8,11.17c-.18-8.92,8-16.58,8-16.58Z" style="opacity:0.2;isolation:isolate"></path><path d="M309.08,145.33c3.56,4.72,9.05-2.16,13.5,13s7.8,20.19,15.52,20.23,16.64,11.74-3.55,17.86-32.53,2-40.5-7.53-10.54-22.42-9.16-32.87S301,134.65,309.08,145.33Z" style="fill:#263238"></path><path d="M311.36,280.23c1.32,3.5,2.52,7,3.62,10.51,5.56,17.58,8.4,38.46,8.4,38.46,14.87,30,25.29,75.17,25.29,75.17l-5.5,1.84L307,325.88l-10.72-27.64Z" style="fill:#e4897b"></path><path d="M348.91,400.18c-.34-.65-8.14,3.78-8.14,3.78s-2.51,7.44-6.77,10.91-.17,5.05,5.21,2.44l13.3-6.46C356.33,409,352.36,406.9,348.91,400.18Z" style="fill:#263238"></path><path d="M337.53,408.07a1.23,1.23,0,0,1-.8.16.87.87,0,0,1-.61-.77,1,1,0,0,1,.16-.75,3.77,3.77,0,0,1,1.71-1.08c-.82,0-1.6-.17-1.83-.58a.83.83,0,0,1,.2-.94,1.36,1.36,0,0,1,1-.53c1.3-.08,2.88,1.46,3,1.54a.22.22,0,0,1,.05.08h0a.19.19,0,0,1,0,.07h0a.22.22,0,0,1,0,.08h0a.2.2,0,0,1,0,.08A11.12,11.12,0,0,1,337.53,408.07Zm0-1.73a2.28,2.28,0,0,0-.87.63.5.5,0,0,0-.09.4c.07.35.21.39.26.4.53.12,1.79-1,2.73-2.11A10.31,10.31,0,0,0,337.54,406.34Zm-.48-2.2a.86.86,0,0,0-.33.27c-.09.1-.22.3-.16.41.2.35,1.65.41,3.07.29a3.89,3.89,0,0,0-2.23-1.06A1,1,0,0,0,337.06,404.14Z" style="fill:#407BFF"></path><path d="M287.31,280a125.64,125.64,0,0,0,8.61,30.27c4.48,10.41,9.43,18.07,13,26,6.37,14,22.82,47.21,22.82,47.21l11-8.31S325.19,332.84,324,324.53c-.77-5.38-1.51-34.31-1.94-54-.23-10.75-.38-18.76-.38-18.76l-31.44-25.11A129.32,129.32,0,0,0,287.31,280Z" style="fill:#407BFF"></path><path d="M295.92,310.3c4.48,10.41,9.43,18.07,13,26,6.37,14,22.82,47.21,22.82,47.21l11-8.31S325.19,332.84,324,324.53c-.77-5.38-1.51-34.31-1.94-54L312.76,251l-12.08,4.85L304.63,271Z" style="opacity:0.2;isolation:isolate"></path><path d="M307.42,342.34c-8.29,31.57-23.87,69-23.87,69l-5.4-2.1L294,342.34Z" style="fill:#e4897b"></path><path d="M286.41,408.28c.16-.71-8.67-2.28-8.67-2.28s-6.68,4.13-12.18,4.08-3.35,3.78,2.45,5.2l14.37,3.52C286.5,419.81,284.79,415.66,286.41,408.28Z" style="fill:#263238"></path><path d="M272.62,407.1a1.23,1.23,0,0,1-.72-.39.87.87,0,0,1,0-1,.94.94,0,0,1,.61-.48,3.71,3.71,0,0,1,2,.27c-.62-.55-1.12-1.16-1-1.63.06-.3.31-.5.75-.59a1.37,1.37,0,0,1,1.13.25c1.06.77,1.3,3,1.31,3.08a.28.28,0,0,1,0,.09h0a.16.16,0,0,1,0,.07h0l-.05.06h0l-.09,0A11,11,0,0,1,272.62,407.1Zm1.11-1.33a2.24,2.24,0,0,0-1.07-.06.49.49,0,0,0-.33.24c-.17.32-.08.44-.05.47.33.44,2,.35,3.45.12A10.37,10.37,0,0,0,273.73,405.77Zm1-2a1,1,0,0,0-.42,0c-.14,0-.36.09-.38.21-.08.4,1,1.38,2.17,2.18a3.89,3.89,0,0,0-1-2.23A.84.84,0,0,0,274.76,403.77Z" style="fill:#407BFF"></path><path d="M323.51,223.26s12.19,25.72,7.88,50-17.33,55.41-20.83,63-16.62,52.29-16.62,52.29L282.6,384.8s10.13-44.4,13.32-59.87c1.5-7.31,14.37-59.34,14.37-59.34s-22.05-16.39-20.49-42Z" style="fill:#407BFF"></path><polygon points="311.45 229.06 293.82 229.32 293.62 224.02 311.26 224.21 311.45 229.06"></polygon><polygon points="292.06 224.01 292.27 229.35 290.49 229.37 290.01 223.99 292.06 224.01"></polygon><polygon points="312.81 224.23 322.17 224.33 322.58 228.89 313 229.03 312.81 224.23"></polygon><rect x="297.73" y="224.41" width="6.86" height="5.2" transform="translate(602.47 453.82) rotate(179.96)" style="fill:#fff"></rect><path d="M284.13,174.58a.36.36,0,0,1-.33-.21,26,26,0,0,1,.48-20.79c2.45-5.43,6.44-9.64,10.4-11,7.95-2.67,11.49,4.53,11.53,4.6a.37.37,0,0,1-.17.48.35.35,0,0,1-.47-.17,8.49,8.49,0,0,0-10.66-4.24c-3.73,1.26-7.65,5.42-10,10.6a25.27,25.27,0,0,0-.46,20.22.37.37,0,0,1-.19.47Z" style="fill:#263238"></path><path d="M337.51,177.13c-6.81,0-11.19-3.4-14.18-11a.35.35,0,0,1,.2-.46.36.36,0,0,1,.46.2c2.91,7.43,6.95,10.6,13.52,10.6,6.84,0,9.1-2.27,9.12-2.29a.36.36,0,0,1,.5,0,.35.35,0,0,1,0,.5C347.05,174.73,344.7,177.13,337.51,177.13Z" style="fill:#263238"></path><path d="M327.75,182.65s-22.16-4.88-40.45,2.24A169.77,169.77,0,0,0,290,224l33.85.25s-1.83-9.22,5.68-27Z" style="fill:#263238"></path><path d="M327.75,182.65s-22.16-4.88-40.45,2.24A169.77,169.77,0,0,0,290,224l33.85.25s-1.83-9.22,5.68-27Z" style="fill:#fff;opacity:0.2"></path><path d="M303,187.87c7.78-1.92,9.77-5.57,9.77-5.57-3.57-2.67-3.5-7.23-3-10.12a15.93,15.93,0,0,1,.68-2.7l-9.3,2.87a27.52,27.52,0,0,1,.82,4,12.17,12.17,0,0,1,.07,3c-.32,2.92-1.94,3.14-1.94,3.14C298.77,185.73,303,187.87,303,187.87Z" style="fill:#e4897b"></path><path d="M302,176.31a12.17,12.17,0,0,1,.07,3c3.72-.93,6.23-4.28,7.73-7.1a15.93,15.93,0,0,1,.68-2.7l-9.3,2.87A27.52,27.52,0,0,1,302,176.31Z" style="opacity:0.2;isolation:isolate"></path><path d="M299.17,148.08c-8.24,1.19-10.26,6-9.63,14.57.78,10.72,4.22,17.92,14.2,14.17C317.29,171.72,312.86,146.1,299.17,148.08Z" style="fill:#e4897b"></path><path d="M294.8,161.42a17.49,17.49,0,0,1-1.91,3.76,2.3,2.3,0,0,0,2.31.62Z" style="fill:#de5753"></path><path d="M299.75,160c.08.68.51,1.19,1,1.14s.76-.65.68-1.33-.52-1.19-1-1.13S299.66,159.33,299.75,160Z" style="fill:#263238"></path><path d="M300.61,158.7l-1.55-.41S300,159.45,300.61,158.7Z" style="fill:#263238"></path><path d="M291.28,160.89c.09.68.52,1.19,1,1.13s.76-.65.67-1.33-.51-1.18-1-1.13S291.2,160.21,291.28,160.89Z" style="fill:#263238"></path><path d="M292.15,159.57l-1.55-.4S291.49,160.33,292.15,159.57Z" style="fill:#263238"></path><path d="M302.76,155.39a.38.38,0,0,1-.24-.09,4,4,0,0,0-3.42-.65.36.36,0,0,1-.43-.24.35.35,0,0,1,.24-.44,4.65,4.65,0,0,1,4.09.81.35.35,0,0,1,0,.5A.33.33,0,0,1,302.76,155.39Z" style="fill:#263238"></path><path d="M289.78,156.33a.39.39,0,0,1-.27-.11.36.36,0,0,1,0-.5,4.23,4.23,0,0,1,3.5-1.24.35.35,0,1,1-.15.69h0a3.56,3.56,0,0,0-2.88,1.07A.33.33,0,0,1,289.78,156.33Z" style="fill:#263238"></path><path d="M310.19,160.67s-4.84-6.22-5-11.53c0,0-17.29-4.31-15.71,12.38,0,0-3.72-14.49,10.4-16.86S316.93,163,310.5,170.25C310.5,170.25,313.18,164.56,310.19,160.67Z" style="fill:#263238"></path><path d="M309.09,162.6a3.65,3.65,0,0,1,3.42-3.86c2.59-.09,4.56,5-1.61,7.15C310,166.21,309.38,165.39,309.09,162.6Z" style="fill:#e4897b"></path><path d="M297.13,170.47h-.21a.36.36,0,0,1-.32-.38.35.35,0,0,1,.38-.33c.13,0,3.3.22,4.19-2.75a.36.36,0,0,1,.68.21A4.74,4.74,0,0,1,297.13,170.47Z" style="fill:#263238"></path><path d="M317.7,181s-7.31,17.51-7.27,23.15,18.14,39.43,21.88,41,7.44-1.6,7.44-1.6-12.4-31.65-12.13-34.81,3.16-13.18,3.16-15.69-1.24-10.42-1.24-10.42Z" style="fill:#407BFF"></path><path d="M339.75,243.57s-3.7,3.17-7.44,1.6-21.84-35.36-21.88-41S317.7,181,317.7,181l11.84,1.63s1.24,7.91,1.24,10.42a48.27,48.27,0,0,1-1.38,7.17,84.31,84.31,0,0,0-1.78,8.52c-.09,1.06,1.25,5.36,3.08,10.58C334.3,229.64,339.75,243.57,339.75,243.57Z" style="fill:#fff;opacity:0.4"></path><path d="M295.92,182s1.49,19,1,22.88-9.63,35.56-9.63,35.56V223.26s-3.14-27.17,0-38.37Z" style="fill:#407BFF"></path><path d="M295.92,182s1.49,19,1,22.88-9.63,35.56-9.63,35.56V223.26s-3.14-27.17,0-38.37Z" style="fill:#fff;opacity:0.4"></path><path d="M326.44,195.47l-.05-.89s1.3,2.33,3,5.66a84.31,84.31,0,0,0-1.78,8.52c-.09,1.06,1.25,5.36,3.08,10.58C323.85,211.18,326.44,195.47,326.44,195.47Z" style="opacity:0.2;isolation:isolate"></path><path d="M357.29,249.46c-4.62-3.69-8.71-2.43-8.71-2.43l1,.1c-5.23-.3-13.64,16.32-16.36,31.61s-7.07,24.26,2.29,30.33,28.83,8.7,32.48,2.24S361.91,253.15,357.29,249.46Zm-3.8,14.39c-6.49,1-10.22,2-9.81-3.31s3.89-10.87,5.63-12c4.23-2.83,6.79.82,8.37,5.31S360,262.8,353.49,263.85Z" style="fill:#407BFF"></path><path d="M353.49,263.85c-6.49,1-10.22,2-9.81-3.31s3.89-10.87,5.63-12c4.23-2.83,6.79.82,8.37,5.31S360,262.8,353.49,263.85Zm11.72,12.62c-2.5-13.14-5.76-25.29-7.92-27-4.62-3.69-8.71-2.43-8.71-2.43l1,.1c-5.23-.3-13.64,16.32-16.36,31.61s-7.07,24.26,2.29,30.33q.94.62,2,1.17c9.89,5.21,27.06,7.1,30.47,1.07C370,307.86,368.08,291.52,365.21,276.47Z" style="fill:#fff;opacity:0.4"></path><path d="M368,311.31c-3.41,6-20.58,4.14-30.47-1.07a31,31,0,0,1-3.19-9.81c-1.18-8.63,5.71-40.2,5.71-40.2s15.25,9,25.16,16.24C368.08,291.52,370,307.86,368,311.31Z" style="opacity:0.2;isolation:isolate"></path><path d="M352.08,247.63c-10.14-1.22-11.67,8.27-12.26,14.7s22.75,5.14,25.52,3.56S363.06,248.94,352.08,247.63Zm-7.81,13.91c-1.57-2.45-.67-11.56,6-13,5.55-1.17,10.88,4.3,10.72,9.5S345.84,264,344.27,261.54Z" style="fill:#407BFF"></path><path d="M352.08,247.63c-10.14-1.22-11.67,8.27-12.26,14.7s22.75,5.14,25.52,3.56S363.06,248.94,352.08,247.63Zm-7.81,13.91c-1.57-2.45-.67-11.56,6-13,5.55-1.17,10.88,4.3,10.72,9.5S345.84,264,344.27,261.54Z" style="fill:#fff;opacity:0.4"></path><path d="M350.24,275.09l.46-19.43s3.07-.74,4.65,0l1.38,18.83Z" style="fill:#407BFF"></path><path d="M354.36,267.18,369,241.76a2.85,2.85,0,0,1,1.58.79L356,268.46Z" style="fill:#263238"></path><path d="M356.73,270.44l6.63-39.07s2.47-.89,4.05,2.18L361,271.23Z" style="fill:#263238"></path><path d="M356.73,270.44l6.63-39.07s2.47-.89,4.05,2.18L361,271.23Z" style="fill:#fff;opacity:0.4"></path><path d="M352.08,247.63c-3,0-6.63.11-8.38,6.49-2.1,7.62-3.65,6.11-3.65,6.11s-3.85,34.44-1.71,38.4c2.77,5.14,10.71,9.79,20.4,9.79s18.28-5.31,21.05-7S375.62,247.86,352.08,247.63Zm-2.48,15.59c-3.05-2.37-4.24-13.65,3.67-14.64,4.73-.59,11.08,4.95,11.47,10.29S352.66,265.59,349.6,263.22Z" style="fill:#407BFF"></path><path d="M352.08,247.63c-3,0-6.63.11-8.38,6.49-2.1,7.62-3.65,6.11-3.65,6.11s-3.85,34.44-1.71,38.4c2.77,5.14,10.71,9.79,20.4,9.79s18.28-5.31,21.05-7S375.62,247.86,352.08,247.63Zm-2.48,15.59c-3.05-2.37-4.24-13.65,3.67-14.64,4.73-.59,11.08,4.95,11.47,10.29S352.66,265.59,349.6,263.22Z" style="fill:#fff;opacity:0.7000000000000001"></path><path d="M341.86,231.37l5,12.07a6,6,0,0,0-.87,4.15c.4,2.38,2.66,5.94,2.66,5.94l8.09-.79s-1.45-9.31-7-10.29l-3.41-11.08Z" style="fill:#e4897b"></path><path d="M329.54,182.65c6.25,2.11,10.21,31.16,10.21,31.16l10,26.6-5.54,1.06S331,216.35,331,216.11s-4.48-18.78-4.48-18.78a52.38,52.38,0,0,1,0-9.46A8.64,8.64,0,0,1,329.54,182.65Z" style="fill:#407BFF"></path><path d="M329.54,182.65c6.25,2.11,10.21,31.16,10.21,31.16l10,26.6-5.54,1.06S331,216.35,331,216.11s-4.48-18.78-4.48-18.78a52.38,52.38,0,0,1,0-9.46A8.64,8.64,0,0,1,329.54,182.65Z" style="fill:#fff;opacity:0.4"></path><path d="M277.87,218s3.84-32.18,11.56-34.42l.58.36s-6.31,4.06-9.74,35.41Z" style="fill:#263238"></path><path d="M255.71,183.57s5.63-.44,7.71,4.3S269.16,207.27,280,207v-.51h1v-.79l1.62-.5s-4.63-.39-7.3-3.56-6-13.45-8.21-16.71S259.27,181.06,255.71,183.57Z" style="fill:#407BFF"></path><path d="M255.71,183.57s5.63-.44,7.71,4.3S269.16,207.27,280,207v-.51h1v-.79l1.62-.5s-4.63-.39-7.3-3.56-6-13.45-8.21-16.71S259.27,181.06,255.71,183.57Z" style="fill:#fff;opacity:0.6000000000000001"></path><path d="M249.38,190.43a10.23,10.23,0,0,1,6.73-7.78c6-2.21,9.4.06,11,2.24,0,0-2.57-3.89-6.43-2.24s-5.44,7.78-5.44,7.78l-1-.5-1,.5-.79-.4-1.19.4-.59-.69Z" style="fill:#407BFF"></path><path d="M249.38,190.43a10.23,10.23,0,0,1,6.73-7.78c6-2.21,9.4.06,11,2.24,0,0-2.57-3.89-6.43-2.24s-5.44,7.78-5.44,7.78l-1-.5-1,.5-.79-.4-1.19.4-.59-.69Z" style="fill:#fff;opacity:0.8"></path><path d="M267.68,198.84l-2.17-6.24s.79-2.07,1.08-2.86-1.48-5.74-2.07-6.14-5.15,2.5-5.34,4.27,3,4.73,3,4.73l2.77,7.42Z" style="fill:#e4897b"></path><path d="M277.87,211.45c0-1.68-1.6-2.55-3.25-2.23h0c-1.78.2-7.31-13.85-7.31-13.85l-4,1.68s3.56,16.52,9.1,19.29c1.48.74,3.41,0,5.44-1.54Z" style="fill:#407BFF"></path><path d="M277.87,211.45a2.36,2.36,0,0,0-3.19-2.25l-.08,0c-1.78.2-7.31-13.85-7.31-13.85l-4,1.68s3.56,16.52,9.1,19.29c1.48.74,3.41,0,5.44-1.53Z" style="fill:#fff;opacity:0.4"></path></g></svg>